<?xml version="1.0" encoding="utf-8"?>
<!-- Generator: Adobe Illustrator 26.3.1, SVG Export Plug-In . SVG Version: 6.00 Build 0)  -->
<svg version="1.1" id="Layer_1" xmlns:android="http://schemas.android.com/apk/res/android"
	 xmlns="http://www.w3.org/2000/svg" xmlns:xlink="http://www.w3.org/1999/xlink" x="0px" y="0px" viewBox="0 0 20 18.6"
	 style="enable-background:new 0 0 20 18.6;" xml:space="preserve">
<style type="text/css">
	.st0{fill:#FFFFFE;}
</style>
<path class="st0" d="M14,2c0-1.1-0.9-2-2-2H2C0.9,0,0,0.9,0,2v4c0,1.1,0.9,2,2,2h1c0.6,0,1-0.5,1.2-1C4.6,5.8,5.7,5,7,5h6
	c0.6,0,1-0.4,1-1V2z"/>
<path class="st0" d="M5,9c0-1.1,0.9-2,2-2h11c1.1,0,2,0.9,2,2v5c0,1.1-0.9,2-2,2h-0.6c-0.3,0-0.5,0.1-0.7,0.3l-2,2
	c-0.4,0.4-1,0.4-1.4,0l-2-2c-0.2-0.2-0.4-0.3-0.7-0.3H7c-1.1,0-2-0.9-2-2V9z"/>
</svg>
