<?xml version="1.0" encoding="utf-8"?>
<!-- Generator: Adobe Illustrator 26.3.1, SVG Export Plug-In . SVG Version: 6.00 Build 0)  -->
<svg version="1.1" id="Layer_1" xmlns:android="http://schemas.android.com/apk/res/android"
	 xmlns="http://www.w3.org/2000/svg" xmlns:xlink="http://www.w3.org/1999/xlink" x="0px" y="0px" viewBox="0 0 20 20"
	 style="enable-background:new 0 0 20 20;" xml:space="preserve">
<style type="text/css">
	.st0{fill:#FFFFFE;}
</style>
<path class="st0" d="M10.9,8c-0.1,0-0.2-0.1-0.2-0.2V5.2c0-0.1-0.1-0.2-0.2-0.2h-1C9.3,5,9.2,5.1,9.2,5.2v2.5C9.2,7.9,9,8,8.9,8h-1
	C7.7,8,7.6,8.2,7.7,8.4l2,2.4c0.1,0.1,0.3,0.1,0.4,0l2-2.4c0.1-0.2,0-0.4-0.2-0.4H10.9z"/>
<path class="st0" d="M11.7,12c0.1,0,0.2-0.1,0.2-0.2v-0.5c0-0.1-0.1-0.2-0.2-0.2H8.2c-0.1,0-0.2,0.1-0.2,0.2v0.5
	C7.9,11.9,8,12,8.2,12H11.7z"/>
<path class="st0" d="M13.9,0h-8c-1.1,0-2,0.9-2,2v16c0,1.1,0.9,2,2,2h8c1.1,0,2-0.9,2-2V2C15.9,0.9,15,0,13.9,0z M10.9,17.8
	c0,0.1-0.1,0.2-0.2,0.2H9.2c-0.1,0-0.2-0.1-0.2-0.2v-0.5C8.9,17.1,9,17,9.2,17h1.5c0.1,0,0.2,0.1,0.2,0.2V17.8z M13.9,14
	c0,0.5-0.5,1-1,1h-6c-0.5,0-1-0.5-1-1V3c0-0.5,0.5-1,1-1h6c0.5,0,1,0.5,1,1V14z"/>
</svg>
